<svg width="1999" height="333" viewBox="0 0 1999 333" fill="none" xmlns="http://www.w3.org/2000/svg">
<g clip-path="url(#clip0_37_3)">
<g clip-path="url(#clip1_37_3)">
<g clip-path="url(#clip2_37_3)">
<g clip-path="url(#clip3_37_3)">
<g clip-path="url(#clip4_37_3)">
<g clip-path="url(#clip5_37_3)">
<g clip-path="url(#clip6_37_3)">
<path d="M226.058 265.428C207.762 265.428 193.426 262.424 183.049 256.416C171.853 250.135 165.791 241.261 164.862 229.791L163.06 211.031C175.294 208.082 185.616 200.491 194.026 188.257C196.32 184.762 197.467 181.758 197.467 179.246C197.467 175.75 195.72 174.002 192.224 174.002H191.651C191.487 174.166 191.214 174.248 190.832 174.248C181.492 193.855 166.364 203.658 145.447 203.658C134.742 203.658 125.649 201.31 118.167 196.613C110.63 191.971 103.721 183.915 97.4404 172.446H96.2115C92.607 172.446 90.8047 173.975 90.8047 177.034C90.8047 179.164 91.6239 181.567 93.2623 184.243C98.56 193.145 105.223 200.136 113.251 205.215C119.477 209.475 126.058 212.014 132.995 212.834L131.438 250.6C123.41 255.788 114.972 259.556 106.124 261.905C97.2765 264.253 84.6878 265.428 68.358 265.428C52.0282 265.428 37.4461 262.233 24.6116 255.843C8.88259 247.978 1.01807 237.028 1.01807 222.992C1.01807 205.57 4.4861 162.451 11.4222 93.6369C15.136 57.7551 18.1398 32.6869 20.4336 18.4325C34.1419 6.14416 54.404 0 81.2198 0C100.717 0 116.856 3.60457 129.636 10.8137L140.613 47.5967L133.65 77.0068C133.104 79.0275 132.831 80.9663 132.831 82.8232C132.831 87.4655 135.507 89.8685 140.859 90.0324L159.865 10.9775C165.326 8.08296 172.454 5.51608 181.247 3.27688C190.04 1.09229 199.625 0 210.001 0C229.499 0 243.944 3.30418 253.338 9.91256C262.732 16.5209 268.303 27.635 270.05 43.2548C270.432 46.1494 271.033 51.0101 271.852 57.837C283.977 162.096 290.039 223.483 290.039 241.998C275.239 257.618 253.912 265.428 226.058 265.428ZM403.01 150.409V185.39C403.938 186.318 405.467 186.782 407.597 186.782C409.727 186.782 411.257 186.072 412.185 184.652C413.113 183.178 413.578 180.638 413.578 177.034V148.443C413.578 135.608 413.059 127.088 412.021 122.883C410.929 118.732 408.935 116.657 406.041 116.657C404.184 116.657 402.573 117.312 401.207 118.623C402.409 131.84 403.01 142.435 403.01 150.409ZM328.215 239.049C306.369 217.967 295.446 189.404 295.446 153.358C295.446 117.258 305.741 88.7762 326.331 67.9134C346.92 47.0506 373.955 36.6192 407.434 36.6192C440.912 36.6192 467.974 47.4875 488.618 69.2242C509.153 90.9608 519.421 119.251 519.421 154.095C519.421 188.994 509.508 216.711 489.683 237.246C469.913 257.781 443.015 268.049 408.99 268.049C375.02 268.049 348.095 258.382 328.215 239.049ZM744.625 121.818L743.969 162.861C743.969 172.419 745.034 180.147 747.164 186.045C749.349 191.889 753.09 196.476 758.388 199.808C758.552 200.463 758.634 201.747 758.634 203.658V207.181C758.634 225.586 753.336 239.895 742.741 250.108C732.091 260.321 718.41 265.428 701.698 265.428C684.986 265.428 671.414 260.703 660.982 251.255C648.858 240.441 642.796 224.03 642.796 202.02C642.796 192.681 643.233 184.461 644.106 177.361C644.98 170.207 645.581 165.1 645.909 162.042C646.236 158.983 646.591 156.116 646.974 153.44C647.411 150.764 647.629 146.832 647.629 141.643C647.629 136.4 646.919 132.659 645.499 130.42C644.079 128.126 642.14 126.979 639.683 126.979C637.225 126.979 635.068 127.525 633.211 128.618L635.832 161.223C633.429 174.712 632.228 188.967 632.228 203.986C632.228 219.06 635.614 232.795 642.386 245.193C629.333 258.683 611.01 265.428 587.416 265.428C573.927 265.428 562.266 261.905 552.436 254.86C540.967 246.831 535.232 236.209 535.232 222.992V126.242C527.367 115.155 523.435 101.501 523.435 85.2809C523.435 69.1149 527.367 55.1062 535.232 43.2548H570.786C580.235 43.2548 588.317 46.7775 595.035 53.8228C589.137 59.2843 586.188 63.8173 586.188 67.4219C586.188 71.5726 588.536 73.648 593.233 73.648C599.077 63.4896 608.033 55.0789 620.103 48.4159C632.173 41.753 645.881 38.4214 661.228 38.4214C684.276 38.4214 703.008 44.0741 717.427 55.3793C735.559 69.6884 744.625 91.8346 744.625 121.818ZM881.189 268.049C844.269 268.049 815.132 257.781 793.778 237.246C771.932 216.547 761.009 188.23 761.009 152.293C761.009 116.357 772.26 87.8751 794.761 66.8484C815.569 47.2417 841.921 37.4384 873.816 37.4384C905.656 37.4384 931.216 46.204 950.495 63.7354C969.774 81.2667 979.414 102.84 979.414 128.454C979.414 151.228 971.467 168.404 955.574 179.983C940.937 190.96 920.948 196.449 895.607 196.449C876.656 196.449 860.654 192.517 847.601 184.652C846.509 185.417 845.962 186.864 845.962 188.994C845.962 193.036 851.233 196.722 861.773 200.054C872.314 203.658 884.275 205.461 897.655 205.461C911.091 205.461 923.297 203.74 934.274 200.299C945.307 196.913 954.154 192.899 960.817 188.257C963.985 191.042 966.552 196.203 968.518 203.74C970.429 211.277 971.385 218.131 971.385 224.303C971.385 230.529 970.784 236.045 969.583 240.851C959.206 249.644 948.529 255.897 937.551 259.611C922.095 265.236 903.308 268.049 881.189 268.049ZM878.567 132.632C885.23 132.632 888.562 130.092 888.562 125.013C888.562 120.207 885.039 117.804 877.994 117.804C870.949 117.804 866.88 121.6 865.788 129.191C869.501 131.485 873.761 132.632 878.567 132.632ZM1089.35 160.813V165.401C1089.35 167.531 1089.43 169.06 1089.6 169.988C1090.91 170.698 1092.36 171.053 1093.94 171.053C1097.82 171.053 1099.76 168.104 1099.76 162.206C1099.76 142.599 1100.85 122.228 1103.03 101.092C1105.27 79.9559 1107.65 63.6534 1110.16 52.1844C1120.97 44.3198 1135.37 40.3876 1153.33 40.3876C1171.36 40.3876 1185.28 43.9102 1195.11 50.9555C1204.89 57.9462 1209.78 66.3569 1209.78 76.1875C1209.78 80.3382 1207.32 97.4053 1202.41 127.389C1196.94 157.918 1189.93 190.059 1181.35 223.811C1179.66 230.638 1176.57 240.168 1172.09 252.402C1167.62 264.69 1162.84 274.903 1157.76 283.041C1141.92 308.218 1122.31 323.811 1098.94 329.818C1088.01 332.604 1077.04 333.996 1066.01 333.996C1044.54 333.996 1027.94 328.671 1016.2 318.022C1005.38 308.409 999.976 296.503 999.976 282.303C999.976 268.104 1004.18 254.75 1012.59 242.244C1014.56 241.697 1018.22 241.424 1023.57 241.424C1028.92 241.424 1035.58 242.08 1043.56 243.391C1065.68 247.541 1076.96 249.617 1077.39 249.617C1078.32 249.78 1079.36 249.944 1080.51 250.108C1081.6 250.327 1083.1 250.436 1085.01 250.436C1086.87 250.436 1088.45 249.89 1089.76 248.797C1091.13 247.76 1091.81 245.63 1091.81 242.407L1044.54 233.396C1032.96 228.59 1022.91 218.541 1014.39 203.249C1003.85 184.297 996.699 158.628 992.931 126.242C984.138 114.773 979.741 101.037 979.741 85.0351C979.741 69.033 983.755 55.1062 991.784 43.2548H1043.15C1060.35 43.2548 1073.21 48.1702 1081.73 58.0008C1088.01 65.3192 1092.03 76.051 1093.78 90.1962C1090.83 113.407 1089.35 136.946 1089.35 160.813ZM1333.15 196.04V246.585C1327.04 251.938 1318.87 256.416 1308.66 260.021C1298.45 263.625 1286.05 265.428 1271.47 265.428C1256.88 265.428 1244.32 262.151 1233.78 255.597C1222.15 248.552 1216.33 238.502 1216.33 225.45V22.2009C1216.33 9.96718 1246.4 3.85033 1306.53 3.85033H1423.92C1427.8 10.8956 1430.67 18.7875 1432.52 27.5258C1434.44 36.2642 1435.39 44.1014 1435.39 51.0375C1435.39 81.5671 1421.98 96.8319 1395.17 96.8319H1325.94C1320.86 96.8319 1318.33 98.9619 1318.33 103.222V104.614C1318.33 105.434 1318.46 105.98 1318.73 106.253H1407.13C1413.96 117.831 1417.37 130.884 1417.37 145.412C1417.37 163.544 1413.3 177.689 1405.16 187.847H1307.18C1306.09 188.885 1305.55 190.087 1305.55 191.452C1305.55 193.582 1307.18 194.838 1310.46 195.22C1313.74 195.603 1317.42 195.794 1321.52 195.794C1325.67 195.794 1329.55 195.876 1333.15 196.04ZM1635.36 123.62V162.861C1635.36 172.419 1636.43 180.147 1638.56 186.045C1640.69 191.889 1644.43 196.476 1649.78 199.808C1649.89 200.463 1649.95 201.747 1649.95 203.658V207.181C1649.95 226.132 1644.21 240.878 1632.74 251.419C1622.58 260.758 1610.05 265.428 1595.14 265.428C1584.98 265.428 1575.72 263.024 1567.37 258.218C1558.96 253.412 1552.95 246.476 1549.35 237.41C1544.81 237.41 1542.55 239.622 1542.55 244.046C1542.55 247.76 1544.87 251.965 1549.51 256.662C1540.88 262.506 1527.83 265.428 1510.35 265.428C1485.66 265.428 1465.95 258.737 1451.2 245.357C1436.51 231.921 1429.17 213.189 1429.17 189.158C1429.17 165.073 1436.95 146.422 1452.51 133.205C1466.82 121.354 1485.31 115.428 1507.97 115.428C1515.68 115.428 1523.13 115.947 1530.34 116.985C1535.15 117.968 1537.74 118.514 1538.12 118.623C1538.56 117.312 1538.78 116.166 1538.78 115.182C1538.78 111.742 1535.83 109.421 1529.93 108.219C1524.09 107.018 1516.41 106.417 1506.91 106.417C1486.81 106.417 1469.61 110.486 1455.3 118.623C1448.8 107.536 1445.55 93.5277 1445.55 76.5971C1445.55 66.9849 1446.75 59.8577 1449.15 55.2155C1458.77 50.7917 1470.97 46.8867 1485.77 43.5006C1500.57 40.1145 1516.17 38.4214 1532.55 38.4214C1566.41 38.4214 1592 45.8217 1609.31 60.6223C1626.68 75.4229 1635.36 96.4223 1635.36 123.62ZM1531.57 172.61C1525.94 172.61 1523.13 175.149 1523.13 180.229C1523.13 185.035 1526.41 187.438 1532.96 187.438C1537.49 187.438 1540.83 186.345 1542.96 184.161C1545.09 181.922 1546.15 178.071 1546.15 172.61C1546.15 172.61 1541.29 172.61 1531.57 172.61ZM1982.71 123.047L1981.89 162.861C1981.89 172.583 1982.99 180.502 1985.17 186.618C1987.3 192.735 1991.01 197.46 1996.31 200.791C1996.48 201.501 1996.56 202.648 1996.56 204.232V207.181C1996.56 225.477 1991.21 239.759 1980.5 250.026C1969.85 260.294 1956.09 265.428 1939.21 265.428C1922.34 265.428 1908.76 260.813 1898.5 251.583C1886.37 240.933 1880.31 224.603 1880.31 202.593V139.431C1880.31 130.475 1877.39 125.996 1871.55 125.996C1869.25 125.996 1867.45 126.542 1866.14 127.635L1869.74 157.454V202.593C1869.74 220.725 1872.75 234.461 1878.75 243.8C1872.36 250.627 1864.39 255.925 1854.83 259.693C1845.28 263.516 1835.58 265.428 1825.75 265.428C1809.75 265.428 1797.35 261.55 1788.56 253.795C1777.85 244.455 1772.5 229.737 1772.5 209.639V139.431C1772.5 130.475 1769.58 125.996 1763.74 125.996C1761.44 125.996 1759.64 126.542 1758.33 127.635L1761.93 157.454V210.458C1761.93 225.368 1763.93 236.891 1767.91 245.029C1754.86 258.519 1736.54 265.264 1712.94 265.264C1698.91 265.264 1687.11 261.714 1677.55 254.614C1666.47 246.476 1660.92 235.553 1660.92 221.845V126.242C1653.06 115.155 1649.13 101.501 1649.13 85.2809C1649.13 69.1149 1653.06 55.1062 1660.92 43.2548H1709.09C1718.6 43.2548 1726.68 46.7775 1733.34 53.8228C1727.44 59.2843 1724.49 63.8173 1724.49 67.4219C1724.49 71.5726 1726.84 73.648 1731.54 73.648C1737.38 63.4896 1745.44 55.4066 1755.71 49.399C1767.72 42.6268 1781.79 39.2407 1797.9 39.2407C1810.19 39.2407 1820.97 41.8349 1830.26 47.0233C1839.49 52.2117 1846.37 58.2193 1850.9 65.0461C1857.18 56.4716 1865.35 50.0271 1875.4 45.7125C1885.5 41.398 1896.01 39.2407 1906.94 39.2407C1931.08 39.2407 1949.81 46.6956 1963.13 61.6054C1976.19 76.5698 1982.71 97.0503 1982.71 123.047Z" fill="white"/>
</g>
</g>
</g>
</g>
</g>
</g>
</g>
<defs>
<clipPath id="clip0_37_3">
<rect width="2000" height="333" fill="white" transform="translate(-1.21191 0.498169)"/>
</clipPath>
<clipPath id="clip1_37_3">
<rect width="1995.58" height="333.996" fill="white" transform="translate(0.999023)"/>
</clipPath>
<clipPath id="clip2_37_3">
<rect width="1995.58" height="333.996" fill="white" transform="translate(0.999023)"/>
</clipPath>
<clipPath id="clip3_37_3">
<rect width="1995.58" height="333.996" fill="white" transform="translate(0.999023)"/>
</clipPath>
<clipPath id="clip4_37_3">
<rect width="1995.58" height="333.996" fill="white" transform="translate(0.999023)"/>
</clipPath>
<clipPath id="clip5_37_3">
<rect width="1995.58" height="333.996" fill="white" transform="translate(0.999023)"/>
</clipPath>
<clipPath id="clip6_37_3">
<rect width="1995.58" height="333.996" fill="white" transform="translate(0.999023)"/>
</clipPath>
</defs>
</svg>
